<?xml version="1.0" encoding="UTF-8"?>
<svg width="134px" height="46px" viewBox="0 0 134 46" version="1.1" xmlns="http://www.w3.org/2000/svg" xmlns:xlink="http://www.w3.org/1999/xlink">
    <!-- Generator: sketchtool 57.1 (101010) - https://sketch.com -->
    <title>284560AA-5EA7-4276-BB04-E634E21981A4@1.00x</title>
    <desc>Created with sketchtool.</desc>
    <defs>
        <path d="M0.585318102,0.532100653 C0.297724066,0.836723331 0.127737213,1.3094819 0.127737213,1.92169437 L0.127737213,1.92169437 L0.127737213,23.7951851 C0.127737213,24.4083866 0.297724066,24.8801562 0.585318102,25.1837898 L0.585318102,25.1837898 L0.657463684,25.2559894 L12.9024468,13.0028388 L12.9024468,12.8584398 L12.9024468,12.7140407 L0.657463684,0.459901122 L0.585318102,0.532100653 Z" id="path-1"></path>
        <linearGradient x1="20.2335994%" y1="9.05660725%" x2="20.2335994%" y2="87.4772898%" id="linearGradient-3">
            <stop stop-color="#00CEFD" offset="0%"></stop>
            <stop stop-color="#1DE8FF" offset="100%"></stop>
        </linearGradient>
        <path d="M0.0546033349,4.80176333 L0.0546033349,4.94616239 L0.0546033349,5.09056145 L4.13527609,9.17626367 L4.22817589,9.12483387 L9.06390653,6.37531749 C10.4445556,5.58903492 10.4445556,4.30328985 9.06390653,3.51799632 L9.06390653,3.51799632 L4.22817589,0.768479939 L4.13626439,0.716061102 L0.0546033349,4.80176333 Z" id="path-4"></path>
        <linearGradient x1="83.814398%" y1="68.6981378%" x2="-14.0946555%" y2="33.7614399%" id="linearGradient-6">
            <stop stop-color="#FFDF00" offset="0%"></stop>
            <stop stop-color="#FFC400" offset="100%"></stop>
        </linearGradient>
        <path d="M0.430896906,12.3263391 C0.885512907,12.808988 1.6376059,12.8693191 2.48457528,12.3876593 L2.48457528,12.3876593 L16.9215982,4.17867148 L12.7480257,0.00098903471 L0.430896906,12.3263391 Z" id="path-7"></path>
        <linearGradient x1="0%" y1="92.1736345%" x2="0%" y2="-12.3847012%" id="linearGradient-9">
            <stop stop-color="#EC3D69" offset="0%"></stop>
            <stop stop-color="#FF5256" offset="100%"></stop>
        </linearGradient>
        <path d="M0.430896906,0.532100653 L12.7480257,12.8584398 L16.9215982,8.6807573 L2.48457528,0.471769538 C2.08728042,0.245280598 1.71073978,0.138464854 1.37669585,0.138464854 L1.37669585,0.138464854 C0.997190316,0.138464854 0.672041045,0.275940673 0.430896906,0.532100653" id="path-10"></path>
        <linearGradient x1="0%" y1="20.2515555%" x2="76.8932147%" y2="75.0920005%" id="linearGradient-12">
            <stop stop-color="#00D786" offset="0%"></stop>
            <stop stop-color="#00EF8E" offset="100%"></stop>
        </linearGradient>
    </defs>
    <g id="Page-1" stroke="none" stroke-width="1" fill="none" fill-rule="evenodd">
        <g id="TextNow_Mobile_AvatarsAlt" transform="translate(-209.000000, -8312.000000)">
            <g id="Download-Floating-Footer-Android" transform="translate(0.000000, 8304.000000)">
                <g id="Google-play-Copy" transform="translate(209.000000, 8.000000)">
                    <g id="Group-29" transform="translate(0.000000, 0.000198)">
                        <path d="M8.42419373,-0.000197806942 L124.99572,-0.000197806942 C127.924995,-0.000197806942 128.987222,0.304800612 130.058121,0.877523882 C131.12902,1.45024715 131.969468,2.29069527 132.542192,3.36159468 C133.114915,4.43249409 133.419913,5.49472023 133.419913,8.42399592 L133.419913,37.5756085 C133.419913,40.5048842 133.114915,41.5671103 132.542192,42.6380097 C131.969468,43.7089091 131.12902,44.5493572 130.058121,45.1220805 C128.987222,45.6948038 127.924995,45.9998022 124.99572,45.9998022 L8.42419373,45.9998022 C5.49491804,45.9998022 4.4326919,45.6948038 3.36179249,45.1220805 C2.29089308,44.5493572 1.45044496,43.7089091 0.877721689,42.6380097 C0.304998418,41.5671103 -1.31613905e-16,40.5048842 2.2651873e-16,37.5756085 L6.80315409e-16,8.42399592 C-3.95282844e-16,5.49472023 0.304998418,4.43249409 0.877721689,3.36159468 C1.45044496,2.29069527 2.29089308,1.45024715 3.36179249,0.877523882 C4.4326919,0.304800612 5.49491804,-0.000197806942 8.42419373,-0.000197806942 Z" id="Rectangle" fill="#000000"></path>
                        <path d="M42.8370822,9.99980219 C43.261061,9.99980219 43.6682388,10.0828811 44.0536741,10.2480499 C44.4400977,10.4142077 44.7494343,10.6347625 44.9816838,10.9107031 L44.4598637,11.4329134 C44.0675103,10.964111 43.5269126,10.7287207 42.8370822,10.7287207 C42.2124793,10.7287207 41.6728699,10.9482864 41.2172656,11.3874178 C40.7616613,11.8275383 40.5343533,12.3972222 40.5343533,13.0994369 C40.5343533,13.8006624 40.7616613,14.3713354 41.2172656,14.8104668 C41.6728699,15.2505873 42.2124793,15.4691639 42.8370822,15.4691639 C43.4992403,15.4691639 44.0507093,15.2486092 44.4934657,14.8065107 C44.7800714,14.5187016 44.9461051,14.1191316 44.9895901,13.6048336 L42.8370822,13.6048336 L42.8370822,12.8917396 L45.7100577,12.8917396 C45.7377299,13.047018 45.7515661,13.1953732 45.7515661,13.3397723 C45.7515661,14.1685833 45.5064688,14.8282695 45.0152858,15.3208087 C44.4568988,15.9063172 43.7305015,16.1990715 42.8370822,16.1990715 C41.9812181,16.1990715 41.2528443,15.9023611 40.6549254,15.3079513 C40.0550299,14.7145305 39.7565646,13.9776996 39.7565646,13.0994369 C39.7565646,12.220185 40.0550299,11.4843432 40.6549254,10.8899334 C41.2528443,10.2965126 41.9812181,9.99980219 42.8370822,9.99980219 Z M69.4615695,9.99980219 C70.3233633,9.99980219 71.0458074,10.3004687 71.6318667,10.9027908 C72.2169378,11.505113 72.5094733,12.2369986 72.5094733,13.0994369 C72.5094733,13.9668203 72.2179261,14.6996949 71.6358199,15.29905 C71.0527255,15.899394 70.3283048,16.1990715 69.4615695,16.1990715 C68.5948342,16.1990715 67.8704135,15.899394 67.2883073,15.29905 C66.7052129,14.6996949 66.414654,13.9668203 66.414654,13.0994369 C66.414654,12.2320534 66.7052129,11.4981897 67.2883073,10.8988347 C67.8704135,10.2994797 68.5948342,9.99980219 69.4615695,9.99980219 Z M50.3069172,10.1324317 L50.3069172,10.8613503 L47.6068935,10.8613503 L47.6068935,12.7424942 L50.0410657,12.7424942 L50.0410657,13.4555882 L47.6068935,13.4555882 L47.6068935,15.3367322 L50.3069172,15.3367322 L50.3069172,16.0666398 L46.8449176,16.0666398 L46.8449176,10.1324317 L50.3069172,10.1324317 Z M55.1762499,10.132135 L55.1762499,10.8610536 L53.5198664,10.8610536 L53.5198664,16.0663431 L52.7578905,16.0663431 L52.7578905,10.8610536 L51.1015069,10.8610536 L51.1015069,10.132135 L55.1762499,10.132135 Z M58.8866083,10.1322339 L58.8866083,16.066442 L58.1246324,16.066442 L58.1246324,10.1322339 L58.8866083,10.1322339 Z M63.9222712,10.132135 L63.9222712,10.8610536 L62.2658876,10.8610536 L62.2658876,16.0663431 L61.5039117,16.0663431 L61.5039117,10.8610536 L59.8475282,10.8610536 L59.8475282,10.132135 L63.9222712,10.132135 Z M74.5057317,10.132135 L77.3876018,14.7479598 L77.4212038,14.7479598 L77.3876018,13.6046358 L77.3876018,10.132135 L78.150566,10.132135 L78.150566,16.0663431 L77.354988,16.0663431 L74.3406863,11.2260074 L74.3070842,11.2260074 L74.3406863,12.3703205 L74.3406863,16.0663431 L73.5787103,16.0663431 L73.5787103,10.132135 L74.5057317,10.132135 Z M69.4615695,10.7287207 C68.8260954,10.7287207 68.2894508,10.9512535 67.8506476,11.3963191 C67.4128326,11.8403957 67.1924426,12.4090907 67.1924426,13.0994369 C67.1924426,13.7897831 67.4128326,14.357489 67.8506476,14.8025546 C68.2894508,15.2476202 68.8260954,15.4691639 69.4615695,15.4691639 C70.0960553,15.4691639 70.6336881,15.2476202 71.0724914,14.8025546 C71.5112947,14.357489 71.7316846,13.7897831 71.7316846,13.0994369 C71.7316846,12.4090907 71.5112947,11.8403957 71.0724914,11.3963191 C70.6336881,10.9512535 70.0960553,10.7287207 69.4615695,10.7287207 Z" id="Combined-Shape" stroke="#FFFFFF" stroke-width="0.5" fill="#FFFFFF"></path>
                        <path d="M104.572552,32.8800314 L106.415723,32.8800314 L106.415723,20.5161089 L104.572552,20.5161089 L104.572552,32.8800314 Z M121.182837,24.9697321 L119.068872,30.3303 L119.005621,30.3303 L116.811605,24.9697321 L114.825131,24.9697321 L118.116155,32.4616697 L116.239382,36.6294618 L118.162605,36.6294618 L123.23355,24.9697321 L121.182837,24.9697321 Z M110.723704,31.4756021 C110.120843,31.4756021 109.277827,31.1729575 109.277827,30.4252473 C109.277827,29.4718179 110.327397,29.104886 111.233664,29.104886 C112.043078,29.104886 112.425549,29.2809342 112.91772,29.5183025 C112.774417,30.6645937 111.789086,31.4756021 110.723704,31.4756021 L110.723704,31.4756021 Z M110.947059,24.6987366 C109.611871,24.6987366 108.229245,25.2882012 107.657022,26.5917489 L109.29364,27.2761609 C109.643497,26.5917489 110.294783,26.3692161 110.978684,26.3692161 C111.932389,26.3692161 112.901907,26.9418672 112.91772,27.9595839 L112.91772,28.0871693 C112.583676,27.8962857 111.86815,27.6104546 110.994497,27.6104546 C109.229401,27.6104546 107.433667,28.5806976 107.433667,30.3935982 C107.433667,32.0482532 108.880532,33.1144326 110.501337,33.1144326 C111.74066,33.1144326 112.425549,32.5576061 112.853481,31.9048432 L112.91772,31.9048432 L112.91772,32.8592616 L114.698629,32.8592616 L114.698629,28.1188185 C114.698629,25.9241505 113.060035,24.6987366 110.947059,24.6987366 L110.947059,24.6987366 Z M99.550033,26.4750428 L96.9270964,26.4750428 L96.9270964,22.2370293 L99.550033,22.2370293 C100.928705,22.2370293 101.711436,23.3783753 101.711436,24.3555415 C101.711436,25.3139161 100.928705,26.4750428 99.550033,26.4750428 L99.550033,26.4750428 Z M99.5025948,20.5151199 L95.083925,20.5151199 L95.083925,32.8800314 L96.9270964,32.8800314 L96.9270964,28.1959632 L99.5025948,28.1959632 C101.54639,28.1959632 103.555595,26.7143892 103.555595,24.3555415 C103.555595,21.9966938 101.54639,20.5151199 99.5025948,20.5151199 L99.5025948,20.5151199 Z M75.4069585,31.4775802 C74.1330454,31.4775802 73.0666744,30.4104118 73.0666744,28.9446624 C73.0666744,27.4620994 74.1330454,26.3791065 75.4069585,26.3791065 C76.6640705,26.3791065 77.6513779,27.4620994 77.6513779,28.9446624 C77.6513779,30.4104118 76.6640705,31.4775802 75.4069585,31.4775802 L75.4069585,31.4775802 Z M77.5238878,25.6620563 L77.4606368,25.6620563 C77.046541,25.168528 76.2499747,24.7214844 75.2478429,24.7214844 C73.145738,24.7214844 71.2185615,26.5699902 71.2185615,28.9446624 C71.2185615,31.3025211 73.145738,33.1352023 75.2478429,33.1352023 C76.2499747,33.1352023 77.046541,32.6891477 77.4606368,32.1788058 L77.5238878,32.1788058 L77.5238878,32.784095 C77.5238878,34.3942434 76.6640705,35.2537146 75.2794683,35.2537146 C74.1488581,35.2537146 73.4481565,34.4417171 73.1615507,33.7563161 L71.5535937,34.4258926 C72.0151278,35.5405346 73.2406144,36.9113367 75.2794683,36.9113367 C77.4448241,36.9113367 79.276136,35.636471 79.276136,32.5289241 L79.276136,24.9766553 L77.5238878,24.9766553 L77.5238878,25.6620563 Z M80.5500491,32.8800314 L82.3961853,32.8800314 L82.3961853,20.5161089 L80.5500491,20.5161089 L80.5500491,32.8800314 Z M85.1189399,28.8012524 C85.0715017,27.1752794 86.3770402,26.3474574 87.3159211,26.3474574 C88.0492365,26.3474574 88.6698862,26.7143892 88.8774283,27.2395666 L85.1189399,28.8012524 Z M90.8510547,27.3988012 C90.5002097,26.4592183 89.4338387,24.7214844 87.2526702,24.7214844 C85.0873144,24.7214844 83.287628,26.4265801 83.287628,28.9288379 C83.287628,31.2866965 85.0715017,33.1352023 87.459224,33.1352023 C89.3854122,33.1352023 90.5002097,31.956273 90.9627321,31.270872 L89.5297034,30.3144754 C89.0513683,31.015701 88.3990932,31.4775802 87.459224,31.4775802 C86.5203431,31.4775802 85.851267,31.0473501 85.4223466,30.2027145 L91.0417957,27.876505 L90.8510547,27.3988012 Z M46.0733551,26.0131636 L46.0733551,27.7973822 L50.3398275,27.7973822 C50.2133256,28.8012524 49.8782934,29.5341271 49.3693211,30.0434799 C48.7476832,30.6655827 47.7761886,31.3509838 46.0733551,31.3509838 C43.445477,31.3509838 41.3917986,29.2314825 41.3917986,26.6026283 C41.3917986,23.9737742 43.445477,21.8532838 46.0733551,21.8532838 C47.4905711,21.8532838 48.5253167,22.4110994 49.2892692,23.1291385 L50.5473696,21.8700974 C49.4800103,20.8504027 48.0637826,20.0690653 46.0733551,20.0690653 C42.4739824,20.0690653 39.4488094,23.0015531 39.4488094,26.6026283 C39.4488094,30.2027145 42.4739824,33.1352023 46.0733551,33.1352023 C48.0153561,33.1352023 49.4800103,32.4972749 50.6264332,31.3025211 C51.8044816,30.1235917 52.1711393,28.4659696 52.1711393,27.1278057 C52.1711393,26.7143892 52.1395139,26.3316328 52.0752747,26.0131636 L46.0733551,26.0131636 Z M57.0216944,31.4775802 C55.7487696,31.4775802 54.6497848,30.4262363 54.6497848,28.9288379 C54.6497848,27.4146258 55.7487696,26.3791065 57.0216944,26.3791065 C58.2956075,26.3791065 59.3945923,27.4146258 59.3945923,28.9288379 C59.3945923,30.4262363 58.2956075,31.4775802 57.0216944,31.4775802 L57.0216944,31.4775802 Z M57.0216944,24.7214844 C54.697223,24.7214844 52.8026603,26.4908674 52.8026603,28.9288379 C52.8026603,31.3509838 54.697223,33.1352023 57.0216944,33.1352023 C59.3471541,33.1352023 61.2417169,31.3509838 61.2417169,28.9288379 C61.2417169,26.4908674 59.3471541,24.7214844 57.0216944,24.7214844 L57.0216944,24.7214844 Z M66.2266801,31.4775802 C64.952767,31.4775802 63.8537823,30.4262363 63.8537823,28.9288379 C63.8537823,27.4146258 64.952767,26.3791065 66.2266801,26.3791065 C67.5005932,26.3791065 68.5985897,27.4146258 68.5985897,28.9288379 C68.5985897,30.4262363 67.5005932,31.4775802 66.2266801,31.4775802 L66.2266801,31.4775802 Z M66.2266801,24.7214844 C63.9022088,24.7214844 62.007646,26.4908674 62.007646,28.9288379 C62.007646,31.3509838 63.9022088,33.1352023 66.2266801,33.1352023 C68.5511515,33.1352023 70.4457143,31.3509838 70.4457143,28.9288379 C70.4457143,26.4908674 68.5511515,24.7214844 66.2266801,24.7214844 L66.2266801,24.7214844 Z" id="Fill-28" fill="#FFFFFF"></path>
                    </g>
                    <g id="Group-32" transform="translate(8.616703, 10.132432)">
                        <mask id="mask-2" fill="white">
                            <use xlink:href="#path-1"></use>
                        </mask>
                        <g id="Clip-31"></g>
                        <path d="M0.585318102,0.532100653 C0.297724066,0.836723331 0.127737213,1.3094819 0.127737213,1.92169437 L0.127737213,1.92169437 L0.127737213,23.7951851 C0.127737213,24.4083866 0.297724066,24.8801562 0.585318102,25.1837898 L0.585318102,25.1837898 L0.657463684,25.2559894 L12.9024468,13.0028388 L12.9024468,12.8584398 L12.9024468,12.7140407 L0.657463684,0.459901122 L0.585318102,0.532100653 Z" id="Fill-30" fill="url(#linearGradient-3)" mask="url(#mask-2)"></path>
                    </g>
                    <g id="Group-35" transform="translate(21.464546, 18.044709)">
                        <mask id="mask-5" fill="white">
                            <use xlink:href="#path-4"></use>
                        </mask>
                        <g id="Clip-34"></g>
                        <path d="M0.0546033349,4.80176333 L0.0546033349,4.94616239 L0.0546033349,5.09056145 L4.13527609,9.17626367 L4.22817589,9.12483387 L9.06390653,6.37531749 C10.4445556,5.58903492 10.4445556,4.30328985 9.06390653,3.51799632 L9.06390653,3.51799632 L4.22817589,0.768479939 L4.13626439,0.716061102 L0.0546033349,4.80176333 Z" id="Fill-33" fill="url(#linearGradient-6)" mask="url(#mask-5)"></path>
                    </g>
                    <g id="Group-38" transform="translate(8.771124, 22.989882)">
                        <mask id="mask-8" fill="white">
                            <use xlink:href="#path-7"></use>
                        </mask>
                        <g id="Clip-37"></g>
                        <path d="M0.430896906,12.3263391 C0.885512907,12.808988 1.6376059,12.8693191 2.48457528,12.3876593 L2.48457528,12.3876593 L16.9215982,4.17867148 L12.7480257,0.00098903471 L0.430896906,12.3263391 Z" id="Fill-36" fill="url(#linearGradient-9)" mask="url(#mask-8)"></path>
                    </g>
                    <g id="Group-41" transform="translate(8.771124, 10.132432)">
                        <mask id="mask-11" fill="white">
                            <use xlink:href="#path-10"></use>
                        </mask>
                        <g id="Clip-40"></g>
                        <path d="M0.430896906,0.532100653 L12.7480257,12.8584398 L16.9215982,8.6807573 L2.48457528,0.471769538 C2.08728042,0.245280598 1.71073978,0.138464854 1.37669585,0.138464854 L1.37669585,0.138464854 C0.997190316,0.138464854 0.672041045,0.275940673 0.430896906,0.532100653" id="Fill-39" fill="url(#linearGradient-12)" mask="url(#mask-11)"></path>
                    </g>
                </g>
            </g>
        </g>
    </g>
</svg>